<svg width="37" height="30" viewBox="0 0 37 30" fill="none" xmlns="http://www.w3.org/2000/svg">
<g id="Stack" clip-path="url(#clip0_1_8)">
<path id="Vector" d="M26.4746 19.0559L29.6902 20.6646C30.1027 20.8709 30.1027 21.4596 29.6902 21.6659L15.5002 28.7628C15.3447 28.8401 15.1733 28.8803 14.9996 28.8803C14.8259 28.8803 14.6546 28.8401 14.499 28.7628L0.308995 21.6659C0.216298 21.6192 0.138394 21.5476 0.083962 21.4592C0.0295303 21.3708 0.000708934 21.2691 0.000708934 21.1653C0.000708934 21.0615 0.0295303 20.9597 0.083962 20.8713C0.138394 20.7829 0.216298 20.7114 0.308995 20.6646L3.52649 19.0559L13.4959 24.0415C14.4427 24.514 15.5584 24.514 16.5034 24.0415L26.4727 19.054L26.4746 19.0559ZM14.499 0.118383C14.6546 0.0410813 14.8259 0.000854492 14.9996 0.000854492C15.1733 0.000854492 15.3447 0.0410813 15.5002 0.118383L29.6902 7.21338C29.7829 7.26041 29.8607 7.33216 29.915 7.42069C29.9693 7.50922 29.9981 7.61107 29.9981 7.71494C29.9981 7.81882 29.9693 7.92067 29.915 8.0092C29.8607 8.09773 29.7829 8.16948 29.6902 8.21651L15.5002 15.3096C15.3447 15.3869 15.1733 15.4272 14.9996 15.4272C14.8259 15.4272 14.6546 15.3869 14.499 15.3096L0.308995 8.21651C0.215806 8.16997 0.137425 8.09839 0.0826423 8.0098C0.0278592 7.92121 -0.00115967 7.81911 -0.00115967 7.71494C-0.00115967 7.61078 0.0278592 7.50868 0.0826423 7.42009C0.137425 7.3315 0.215806 7.25992 0.308995 7.21338L14.499 0.118383Z" fill="#4690FF"/>
<path id="Vector_2" d="M26.475 12.33L29.6906 13.9387C30.1031 14.145 30.1031 14.7337 29.6906 14.94L15.5006 22.035C15.3451 22.1123 15.1737 22.1525 15 22.1525C14.8263 22.1525 14.6549 22.1123 14.4994 22.035L0.309385 14.94C0.216688 14.8933 0.138783 14.8217 0.0843517 14.7333C0.02992 14.6449 0.00109863 14.5432 0.00109863 14.4394C0.00109863 14.3356 0.02992 14.2338 0.0843517 14.1454C0.138783 14.057 0.216688 13.9855 0.309385 13.9387L3.52688 12.33L13.4963 17.3156C14.4431 17.7881 15.5588 17.7881 16.5038 17.3156L26.475 12.33Z" fill="#4690FF"/>
</g>
<defs>
<clipPath id="clip0_1_8">
<rect width="36.1417" height="30" fill="white"/>
</clipPath>
</defs>
</svg>
